HIERARCHY
ROOT Hip
{
	OFFSET 0 1.131 0.0052
	CHANNELS 6 Xposition Yposition Zposition Xrotation Yrotation Zrotation
	JOINT Abdomen
	{
		OFFSET 0 -0.047353 -0.05
		CHANNELS 3 Xrotation Zrotation Yrotation
		JOINT Chest
		{
			OFFSET 0 0.132153 0.007439
			CHANNELS 3 Xrotation Zrotation Yrotation
			JOINT Neck
			{
				OFFSET 0 0.3078 0.006161
				CHANNELS 3 Xrotation Zrotation Yrotation
				JOINT Head_comp
				{
					OFFSET 0 0.0884 0.013
					CHANNELS 3 Xrotation Yrotation Zrotation
					End Site
					{
						OFFSET -0 0.156 0.0624
					}
				}
			}
			JOINT Left_Collar
			{
				OFFSET 0.02282 0.250342 0.017193
				CHANNELS 2 Yrotation Zrotation
				JOINT Left_Shoulder
				{
					OFFSET 0.15421 0 0
					CHANNELS 3 Xrotation Yrotation Zrotation
					JOINT Left_Forearm
					{
						OFFSET 0.265212 0 0
						CHANNELS 2 Yrotation Xrotation
						JOINT Left_Hand
						{
							OFFSET 0.27571 0 0
							CHANNELS 2 Zrotation Yrotation
							JOINT L1ProxPhalanx
							{
								OFFSET 0.014142 0.001733 0.014142
								CHANNELS 3 Yrotation Zrotation Xrotation
								JOINT L1MidPhalanx
								{
									OFFSET 0.04 0 0
									CHANNELS 1 Zrotation
									JOINT L1DistPhalanx
									{
										OFFSET 0.035 0 0
										CHANNELS 1 Zrotation
										End Site
										{
											OFFSET 0.029 -0 -0
										}
									}
								}
							}
							JOINT L2ProxPhalanx
							{
								OFFSET 0.0821037 0.001578 0.0219996
								CHANNELS 2 Yrotation Zrotation
								JOINT L2MidPhalanx
								{
									OFFSET 0.04 0 0
									CHANNELS 1 Zrotation
									JOINT L2DistPhalanx
									{
										OFFSET 0.028 0 0
										CHANNELS 1 Zrotation
										End Site
										{
											OFFSET 0.02 -0 -0
										}
									}
								}
							}
							JOINT L3ProxPhalanx
							{
								OFFSET 0.083 0 0
								CHANNELS 2 Yrotation Zrotation
								JOINT L3MidPhalanx
								{
									OFFSET 0.053 0 0
									CHANNELS 1 Zrotation
									JOINT L3DistPhalanx
									{
										OFFSET 0.03 0 0
										CHANNELS 1 Zrotation
										End Site
										{
											OFFSET 0.023 -0 -0
										}
									}
								}
							}
							JOINT L4ProxPhalanx
							{
								OFFSET 0.077274 -0.000761 -0.0207055
								CHANNELS 2 Yrotation Zrotation
								JOINT L4MidPhalanx
								{
									OFFSET 0.05 0 0
									CHANNELS 1 Zrotation
									JOINT L4DistPhalanx
									{
										OFFSET 0.03 0 0
										CHANNELS 1 Zrotation
										End Site
										{
											OFFSET 0.023 -0 -0
										}
									}
								}
							}
							JOINT L5ProxPhalanx
							{
								OFFSET 0.0675499 -0.001644 -0.039
								CHANNELS 2 Yrotation Zrotation
								JOINT L5MidPhalanx
								{
									OFFSET 0.04 0 0
									CHANNELS 1 Zrotation
									JOINT L5DistPhalanx
									{
										OFFSET 0.021 0 0
										CHANNELS 1 Zrotation
										End Site
										{
											OFFSET 0.022 -0 -0
										}
									}
								}
							}
						}
					}
				}
			}
			JOINT Right_Collar
			{
				OFFSET -0.02282 0.250342 0.017193
				CHANNELS 2 Yrotation Zrotation
				JOINT Right_Shoulder
				{
					OFFSET -0.15421 0 0
					CHANNELS 3 Xrotation Yrotation Zrotation
					JOINT Right_Forearm
					{
						OFFSET -0.265212 0 0
						CHANNELS 2 Yrotation Xrotation
						JOINT Right_Hand
						{
							OFFSET -0.27571 3e-006 0
							CHANNELS 2 Zrotation Yrotation
							JOINT R1ProxPhalanx
							{
								OFFSET -0.014142 0.001733 0.014142
								CHANNELS 3 Yrotation Zrotation Xrotation
								JOINT R1MidPhalanx
								{
									OFFSET -0.04 0 0
									CHANNELS 1 Zrotation
									JOINT R1DistPhalanx
									{
										OFFSET -0.035 0 0
										CHANNELS 1 Zrotation
										End Site
										{
											OFFSET -0.029 -0 -0
										}
									}
								}
							}
							JOINT R2ProxPhalanx
							{
								OFFSET -0.0821037 0.001578 0.0219996
								CHANNELS 2 Yrotation Zrotation
								JOINT R2MidPhalanx
								{
									OFFSET -0.04 0 0
									CHANNELS 1 Zrotation
									JOINT R2DistPhalanx
									{
										OFFSET -0.028 0 0
										CHANNELS 1 Zrotation
										End Site
										{
											OFFSET -0.02 -0 -0
										}
									}
								}
							}
							JOINT R3ProxPhalanx
							{
								OFFSET -0.083 0 0
								CHANNELS 2 Yrotation Zrotation
								JOINT R3MidPhalanx
								{
									OFFSET -0.053 0 0
									CHANNELS 1 Zrotation
									JOINT R3DistPhalanx
									{
										OFFSET -0.03 0 0
										CHANNELS 1 Zrotation
										End Site
										{
											OFFSET -0.023 -0 -0
										}
									}
								}
							}
							JOINT R4ProxPhalanx
							{
								OFFSET -0.077274 -0.000761 -0.0207055
								CHANNELS 2 Yrotation Zrotation
								JOINT R4MidPhalanx
								{
									OFFSET -0.05 0 0
									CHANNELS 1 Zrotation
									JOINT R4DistPhalanx
									{
										OFFSET -0.03 0 0
										CHANNELS 1 Zrotation
										End Site
										{
											OFFSET -0.023 -0 -0
										}
									}
								}
							}
							JOINT R5ProxPhalanx
							{
								OFFSET -0.0675499 -0.001644 -0.039
								CHANNELS 2 Yrotation Zrotation
								JOINT R5MidPhalanx
								{
									OFFSET -0.04 0 0
									CHANNELS 1 Zrotation
									JOINT R5DistPhalanx
									{
										OFFSET -0.021 0 0
										CHANNELS 1 Zrotation
										End Site
										{
											OFFSET -0.022 -0 -0
										}
									}
								}
							}
						}
					}
				}
			}
		}
	}
	JOINT Left_Thigh
	{
		OFFSET 0.1118 -0.1612 -0.0442
		CHANNELS 3 Xrotation Zrotation Yrotation
		JOINT Left_Shin
		{
			OFFSET 0 -0.477856 0
			CHANNELS 1 Xrotation
			JOINT Left_Foot
			{
				OFFSET 0 -0.431952 0
				CHANNELS 2 Xrotation Zrotation
				JOINT Left_Toe
				{
					OFFSET 0 -0.0442 0.119
					CHANNELS 1 Xrotation
					End Site
					{
						OFFSET -0 -0 0.07
					}
				}
			}
		}
	}
	JOINT Right_Thigh
	{
		OFFSET -0.1118 -0.1612 -0.0442
		CHANNELS 3 Xrotation Zrotation Yrotation
		JOINT Right_Shin
		{
			OFFSET 0 -0.477856 0
			CHANNELS 1 Xrotation
			JOINT Right_Foot
			{
				OFFSET 0 -0.431952 0
				CHANNELS 2 Xrotation Zrotation
				JOINT Right_Toe
				{
					OFFSET 0 -0.0442 0.119
					CHANNELS 1 Xrotation
					End Site
					{
						OFFSET -0 -0 0.07
					}
				}
			}
		}
	}
}
MOTION
Frames: 13
Frame Time: 0.00997494
-0.10065 -0.0601246 0.04981 -1.10064e-013 6.15948e-008 -5.10933e-006 0 -0 0 0 -0 0 0 -0 0 -0.712948 0.289018 -9.0122e-012 8.27208 -31.015 23.4652 -30.8876 -21.9574 -124.404 -7.17761 3.72125 -16.9043 -40.5316 -43.5896 103.283 -7.10789 -4.81548 2.69559 -7.40342 -2.98992 -6.72733 5.89092 0.508958 -5.4973 -5.3917 11.1257 1.19015 -12.1062 -9.35422 19.4153 3.33565 -41.2194 -1.46018 -5.18723 26.1262 10.8344 35.8054 26.2334 118.703 -5.63532 -9.65924 11.9184 29.2877 55.5022 123.447 24.9585 5.44732 -8.65741 33.8249 9.40511 9.04997 -13.8601 27.7656 17.8129 14.0128 -21.3609 11.5198 54.8885 -4.63674 -42.7574 -1.746 108.395 -35.4848 0.669431 -0.702161 -0.00820391 0.0240216 -0.693403 0.702214 0 0.680837 -0.702159 -0.00834368 1.21044e-006 -0.680787 0.702214 0 
-0.10062 -0.0601215 0.049516 1.13882e-012 5.98336e-008 -5.10936e-006 0 -0 0 0 -0 0 0 -0 0 -0.712917 0.288964 2.52429e-012 8.27208 -31.015 23.4652 -30.8876 -21.9574 -124.404 -7.17761 3.72125 -16.9043 -40.5316 -43.5896 103.283 -7.10789 -4.81548 2.69559 -7.40342 -2.98992 -6.72733 5.89092 0.508958 -5.4973 -5.3917 11.1257 1.19015 -12.1062 -9.35422 19.4153 3.33565 -41.2194 -1.46018 -4.89678 25.5039 9.28068 36.5509 26.9769 117.503 -5.28739 -10.3076 10.1559 22.5775 52.147 101.025 14.019 17.1903 -10.6821 39.5529 10.0487 9.62034 -16.3427 32.6946 19.6909 15.0491 -24.4355 14.3032 59.5852 -1.69625 -45.7248 -1.56972 109.351 -34.4682 0.650914 -0.704107 -0.00799932 0.0240216 -0.674887 0.704157 0 0.66232 -0.704105 -0.00813948 8.47354e-007 -0.662271 0.704157 0 
-0.100649 -0.0601175 0.0491937 -6.46781e-013 5.82851e-008 -5.10938e-006 0 -0 0 0 -0 0 0 -0 0 -0.712882 0.289064 1.38928e-011 8.27208 -31.015 23.4652 -30.8876 -21.9574 -124.404 -7.17761 3.72125 -16.9043 -40.5316 -43.5896 103.283 -7.10789 -4.81548 2.69559 -7.40342 -2.98992 -6.72733 5.89092 0.508958 -5.4973 -5.3917 11.1257 1.19015 -12.1062 -9.35422 19.4153 3.33565 -41.2194 -1.46018 -4.49967 25.2744 7.63568 37.0415 27.7664 116.195 -5.01777 -10.7968 8.30268 21.4508 48.1242 81.4968 6.09849 32.1686 -11.4893 41.0513 9.4782 9.7878 -17.6265 33.6401 19.7815 15.3988 -26.4402 14.6273 61.499 -1.79615 -46.8708 -1.60729 110.014 -36.6553 0.63061 -0.702229 -0.0077292 0.0240216 -0.654584 0.702277 0 0.642016 -0.702228 -0.00786899 8.64473e-007 -0.641969 0.702277 0 
-0.100688 -0.0601129 0.0488213 7.28766e-013 5.61978e-008 -5.1094e-006 0 -0 0 0 -0 0 0 -0 0 -0.712844 0.289172 3.86236e-012 8.27208 -31.015 23.4652 -30.8876 -21.9574 -124.404 -7.17761 3.72125 -16.9043 -40.5316 -43.5896 103.283 -7.10789 -4.81548 2.69559 -7.40342 -2.98992 -6.72733 5.89092 0.508958 -5.4973 -5.3917 11.1257 1.19015 -12.1062 -9.35422 19.4153 3.33565 -41.2194 -1.46018 -3.93049 25.0406 5.82821 37.4679 28.6731 114.681 -4.75469 -11.0661 6.45687 25.4273 48.9669 87.8959 8.61742 35.45 -11.7547 42.2987 9.45968 10.0728 -17.9541 35.2178 20.1102 15.6745 -27.1854 16.7014 62.342 -1.78206 -48.3957 -1.45972 111.17 -37.4863 0.607153 -0.699821 -0.00741614 0.0240216 -0.631129 0.699866 0 0.618558 -0.69982 -0.00755545 1.18624e-006 -0.618513 0.699866 0 
-0.100718 -0.0601086 0.0484514 -9.63433e-013 5.40906e-008 -5.10942e-006 0 -0 0 0 -0 0 0 -0 0 -0.712806 0.289249 8.99411e-012 8.27208 -31.015 23.4652 -30.8876 -21.9574 -124.404 -7.17761 3.72125 -16.9043 -40.5316 -43.5896 103.283 -7.10789 -4.81548 2.69559 -7.40342 -2.98992 -6.72733 5.89092 0.508958 -5.4973 -5.3917 11.1257 1.19015 -12.1062 -9.35422 19.4153 3.33565 -41.2194 -1.46018 -3.42057 24.7741 4.02762 37.9345 29.5771 112.964 -4.40398 -11.0932 4.69622 31.2063 49.2624 110.987 10.0671 28.663 -11.9331 44.3713 9.25727 10.0089 -18.2406 37.6127 20.4123 15.5155 -28.2163 19.1172 63.7626 -2.65396 -50.5389 -1.25366 111.89 -37.4243 0.583856 -0.697909 -0.00711205 0.0240216 -0.607834 0.697951 0 0.595261 -0.697908 -0.00725097 1.23465e-006 -0.595219 0.697951 0 
-0.100749 -0.0601044 0.048078 -5.08209e-013 5.20333e-008 -5.10944e-006 0 -0 0 0 -0 0 0 -0 0 -0.712768 0.289346 7.26187e-012 8.27208 -31.015 23.4652 -30.8876 -21.9574 -124.404 -7.17761 3.72125 -16.9043 -40.5316 -43.5896 103.283 -7.10789 -4.81548 2.69559 -7.40342 -2.98992 -6.72733 5.89092 0.508958 -5.4973 -5.3917 11.1257 1.19015 -12.1062 -9.35422 19.4153 3.33565 -41.2194 -1.46018 -2.94439 24.543 2.12161 38.3722 30.5099 111.086 -4.05277 -11.0713 2.93676 29.089 52.401 148.829 13.1118 12.9744 -11.9626 46.4874 9.11279 9.72723 -18.3961 39.1989 20.8556 15.4611 -29.3324 19.7359 66.0906 -4.1474 -52.2067 -1.17755 113.47 -39.8734 0.560337 -0.695926 -0.00680619 0.0240216 -0.584317 0.695964 0 0.571743 -0.695924 -0.00694472 1.17413e-006 -0.571702 0.695964 0 
-0.100786 -0.0601001 0.0476833 5.61555e-013 4.9883e-008 -5.10946e-006 0 -0 0 0 -0 0 0 -0 0 -0.712728 0.289464 1.40678e-011 8.27208 -31.015 23.4652 -30.8876 -21.9574 -124.404 -7.17761 3.72125 -16.9043 -40.5316 -43.5896 103.283 -7.10789 -4.81548 2.69559 -7.40342 -2.98992 -6.72733 5.89092 0.508958 -5.4973 -5.3917 11.1257 1.19015 -12.1062 -9.35422 19.4153 3.33565 -41.2194 -1.46018 -2.4187 24.3568 0.154385 38.7035 31.4954 109.023 -3.69002 -10.9353 1.28367 27.0916 52.4371 150.94 14.0836 12.1816 -11.9597 46.059 9.11062 9.40998 -18.4158 38.7341 20.6791 15.6137 -29.3083 19.6842 66.2311 -4.89839 -52.2866 -1.17361 113.998 -40.5317 0.535479 -0.693616 -0.00648266 0.0240216 -0.559462 0.693651 0 0.546885 -0.693615 -0.00662073 1.24676e-006 -0.546846 0.693651 0 
-0.100825 -0.0600957 0.0472595 1.1018e-012 4.75842e-008 -5.10948e-006 0 -0 0 0 -0 0 0 -0 0 -0.712685 0.289598 1.08233e-011 8.27208 -31.015 23.4652 -30.8876 -21.9574 -124.404 -7.17761 3.72125 -16.9043 -40.5316 -43.5896 103.283 -7.10789 -4.81548 2.69559 -7.40342 -2.98992 -6.72733 5.89092 0.508958 -5.4973 -5.3917 11.1257 1.19015 -12.1062 -9.35422 19.4153 3.33565 -41.2194 -1.46018 -1.78376 24.1774 -1.91222 38.8738 32.5776 106.777 -3.33396 -10.7531 -0.313398 23.9181 51.1048 111.902 9.47694 23.9055 -11.7784 40.8156 7.60498 8.48655 -18.4005 40.8792 21.5586 18.5732 -29.2558 23.0131 66.3762 -0.757691 -53.3708 -0.89077 118.594 -42.7827 0.508787 -0.691143 -0.00613757 0.0240216 -0.532771 0.691176 0 0.520192 -0.691142 -0.00627515 0 -0.520154 0.691176 0 
-0.10085 -0.0600917 0.046843 -6.04779e-013 4.51038e-008 -5.1095e-006 0 -0 0 0 -0 0 0 -0 0 -0.712644 0.289665 1.31736e-012 8.27208 -31.015 23.4652 -30.8876 -21.9574 -124.404 -7.17761 3.72125 -16.9043 -40.5316 -43.5896 103.283 -7.10789 -4.81548 2.69559 -7.40342 -2.98992 -6.72733 5.89092 0.508958 -5.4973 -5.3917 11.1257 1.19015 -12.1062 -9.35422 19.4153 3.33565 -41.2194 -1.46018 -1.23799 23.986 -3.95051 39.1393 33.5837 104.314 -2.89338 -10.5016 -1.9214 19.9225 54.953 98.4501 13.8778 25.5116 -11.1844 26.3212 4.38591 5.42051 -14.1904 53.1635 48.6674 38.1307 -20.0838 46.7389 83.2889 15.6468 -39.2109 27.3952 126.479 -35.5793 0.482557 -0.689597 -0.005808 0.0240216 -0.506544 0.689627 0 0.493963 -0.689596 -0.00594527 8.17397e-007 -0.493928 0.689627 0 
-0.100875 -0.060088 0.046429 1.60541e-012 4.29056e-008 -5.10951e-006 0 -0 0 0 -0 0 0 -0 0 -0.712603 0.289746 1.50689e-011 8.27208 -31.015 23.4652 -30.8876 -21.9574 -124.404 -7.17761 3.72125 -16.9043 -40.5316 -43.5896 103.283 -7.10789 -4.81548 2.69559 -7.40342 -2.98992 -6.72733 5.89092 0.508958 -5.4973 -5.3917 11.1257 1.19015 -12.1062 -9.35422 19.4153 3.33565 -41.2194 -1.46018 -0.680404 23.8209 -5.93036 39.3375 34.5641 101.665 -2.39391 -10.0741 -3.43335 29.366 57.3419 100.253 17.6149 26.7669 -10.7827 16.439 4.06547 3.76735 -13.1022 55.4144 69.6355 51.211 -16.0791 55.3432 99.3464 16.7657 -33.4947 40.5729 133.993 -27.783 0.45648 -0.68804 -0.00548187 0.0240216 -0.480468 0.688067 0 0.467885 -0.688039 -0.00561883 1.70755e-006 -0.467853 0.688067 0 
-0.100923 -0.0600839 0.0459835 3.45775e-013 4.04284e-008 -5.10953e-006 0 -0 0 0 -0 0 0 -0 0 -0.712559 0.2899 1.44813e-011 8.27208 -31.015 23.4652 -30.8876 -21.9574 -124.404 -7.17761 3.72125 -16.9043 -40.5316 -43.5896 103.283 -7.10789 -4.81548 2.69559 -7.40342 -2.98992 -6.72733 5.89092 0.508958 -5.4973 -5.3917 11.1257 1.19015 -12.1062 -9.35422 19.4153 3.33565 -41.2194 -1.46018 0.0376192 23.7443 -7.86241 39.3511 35.5644 98.8021 -1.87154 -9.54531 -4.74726 27.7703 57.3953 88.3052 9.42081 40.3997 -12.032 24.0722 5.80891 6.44532 -15.8194 54.9134 58.8545 50.7383 -21.5533 49.172 96.6847 12.0946 -45.7901 28.8696 136.785 -16.3699 0.428419 -0.684971 -0.00512196 0.0240216 -0.45241 0.684996 0 0.439824 -0.68497 -0.00525831 1.70755e-006 -0.439795 0.684996 0 
-0.100935 -0.0600807 0.0455862 -8.83946e-013 3.78848e-008 -5.10955e-006 0 -0 0 0 -0 0 0 -0 0 -0.712521 0.289951 -4.25047e-012 8.27208 -31.015 23.4652 -30.8876 -21.9574 -124.404 -7.17761 3.72125 -16.9043 -40.5316 -43.5896 103.283 -7.10789 -4.81548 2.69559 -7.40342 -2.98992 -6.72733 5.89092 0.508958 -5.4973 -5.3917 11.1257 1.19015 -12.1062 -9.35422 19.4153 3.33565 -41.2194 -1.46018 0.46859 23.7268 -9.71343 39.5247 36.3876 95.7551 -1.25471 -8.91537 -5.89339 13.8213 57.389 99.7281 10.1963 41.0314 -15.7532 34.5703 6.28857 9.38201 -17.4687 58.5964 51.4418 64.3793 -25.1742 51.4393 93.5011 24.8578 -52.1105 29.5504 136.165 -8.30828 0.4034 -0.684221 -0.00481727 0.0240216 -0.427393 0.684243 0 0.414805 -0.68422 -0.00495348 1.27702e-006 -0.414777 0.684243 0 
-0.10092 -0.0600782 0.0451961 6.96886e-014 3.59908e-008 -5.10956e-006 0 -0 0 0 -0 0 0 -0 0 -0.712485 0.289948 5.77069e-012 8.27208 -31.015 23.4652 -30.8876 -21.9574 -124.404 -7.17761 3.72125 -16.9043 -40.5316 -43.5896 103.283 -7.10789 -4.81548 2.69559 -7.40342 -2.98992 -6.72733 5.89092 0.508958 -5.4973 -5.3917 11.1257 1.19015 -12.1062 -9.35422 19.4153 3.33565 -41.2194 -1.46018 0.864931 23.672 -11.5817 39.6282 37.2024 92.5759 -0.583937 -8.24437 -7.0001 21.5677 51.4867 85.1435 8.58329 45.7169 -12.3274 22.2621 4.62535 6.55197 -15.6707 53.5452 60.5012 79.2375 -21.1016 51.3703 99.1935 35.9114 -40.3552 35.6168 134.639 -7.30792 0.378832 -0.685165 -0.00453022 0.0240216 -0.402826 0.685185 0 0.390236 -0.685164 -0.0046666 1.60056e-006 -0.39021 0.685185 0 
